<svg xmlns="http://www.w3.org/2000/svg" width="1600" height="560" viewBox="0 0 1600 560">
<rect x="0" y="0" width="1600" height="560" fill="white"/>
<defs><marker id="arrow" markerWidth="8" markerHeight="8" refX="4" refY="4" orient="auto" markerUnits="strokeWidth"><path d="M0,0 L8,4 L0,8 z" fill="#111"/></marker></defs>
<rect x="72" y="40" width="462" height="448" fill="#fafafa" stroke="#cfcfcf" stroke-width="1.2"/>
<text x="295.0" y="64" text-anchor="middle" font-family="Arial" font-size="21" font-weight="700" fill="#111111">Linear Classification</text>
<text x="295.0" y="89" text-anchor="middle" font-family="Arial" font-size="15" fill="#555">Tiny ImageNet</text>
<line x1="90" y1="374.8" x2="500" y2="374.8" stroke="#e8e8e8" stroke-width="1"/>
<text x="78" y="379.8" text-anchor="end" font-family="Arial" font-size="13" fill="#555">20</text>
<line x1="90" y1="292.2" x2="500" y2="292.2" stroke="#e8e8e8" stroke-width="1"/>
<text x="78" y="297.2" text-anchor="end" font-family="Arial" font-size="13" fill="#555">30</text>
<line x1="90" y1="209.8" x2="500" y2="209.8" stroke="#e8e8e8" stroke-width="1"/>
<text x="78" y="214.8" text-anchor="end" font-family="Arial" font-size="13" fill="#555">40</text>
<line x1="90" y1="127.2" x2="500" y2="127.2" stroke="#e8e8e8" stroke-width="1"/>
<text x="78" y="132.2" text-anchor="end" font-family="Arial" font-size="13" fill="#555">50</text>
<line x1="135.6" y1="86" x2="135.6" y2="416" stroke="#f0f0f0" stroke-width="1"/>
<text x="135.6" y="438" text-anchor="middle" font-family="Arial" font-size="13" fill="#555">4</text>
<line x1="196.3" y1="86" x2="196.3" y2="416" stroke="#f0f0f0" stroke-width="1"/>
<text x="196.3" y="438" text-anchor="middle" font-family="Arial" font-size="13" fill="#555">8</text>
<line x1="257.0" y1="86" x2="257.0" y2="416" stroke="#f0f0f0" stroke-width="1"/>
<text x="257.0" y="438" text-anchor="middle" font-family="Arial" font-size="13" fill="#555">12</text>
<line x1="317.8" y1="86" x2="317.8" y2="416" stroke="#f0f0f0" stroke-width="1"/>
<text x="317.8" y="438" text-anchor="middle" font-family="Arial" font-size="13" fill="#555">16</text>
<line x1="378.5" y1="86" x2="378.5" y2="416" stroke="#f0f0f0" stroke-width="1"/>
<text x="378.5" y="438" text-anchor="middle" font-family="Arial" font-size="13" fill="#555">20</text>
<line x1="439.3" y1="86" x2="439.3" y2="416" stroke="#f0f0f0" stroke-width="1"/>
<text x="439.3" y="438" text-anchor="middle" font-family="Arial" font-size="13" fill="#555">24</text>
<line x1="500.0" y1="86" x2="500.0" y2="416" stroke="#f0f0f0" stroke-width="1"/>
<text x="500.0" y="438" text-anchor="middle" font-family="Arial" font-size="13" fill="#555">28</text>
<line x1="90" y1="86" x2="90" y2="416" stroke="#333333" stroke-width="1.4"/>
<line x1="90" y1="416" x2="500" y2="416" stroke="#333333" stroke-width="1.4"/>
<text x="295.0" y="466" text-anchor="middle" font-family="Arial" font-size="16" font-weight="700" fill="#111111">Layer Index</text>
<text transform="translate(32,251.0) rotate(-90)" text-anchor="middle" font-family="Arial" font-size="16" font-weight="700" fill="#111111">Validation Acc. (%) ↑</text>
<polyline points="90.0,358.2 105.2,341.8 120.4,333.5 135.6,341.8 150.7,350.0 165.9,358.2 181.1,350.0 196.3,358.2 211.5,366.5 226.7,358.2 241.9,350.0 257.0,333.5 272.2,317.0 287.4,300.5 302.6,275.8 317.8,251.0 333.0,218.0 348.1,185.0 363.3,160.2 378.5,143.8 393.7,135.5 408.9,152.0 424.1,185.0 439.3,218.0 454.4,242.8 469.6,267.5 484.8,284.0 500.0,300.5" fill="none" stroke="#2b83ba" stroke-width="4" stroke-linejoin="round" stroke-linecap="round"/>
<polyline points="90.0,399.5 105.2,374.8 120.4,325.2 135.6,275.8 150.7,234.5 165.9,201.5 181.1,176.8 196.3,168.5 211.5,160.2 226.7,152.0 241.9,143.8 257.0,135.5 272.2,127.2 287.4,127.2 302.6,135.5 317.8,143.8 333.0,152.0 348.1,160.2 363.3,168.5 378.5,176.8 393.7,185.0 408.9,193.2 424.1,201.5 439.3,209.8 454.4,218.0 469.6,226.3 484.8,234.5 500.0,242.8" fill="none" stroke="#ef3b2c" stroke-width="4" stroke-linejoin="round" stroke-linecap="round"/>
<circle cx="90.0" cy="358.2" r="5.3" fill="#2b83ba" stroke="white" stroke-width="1"/>
<circle cx="120.4" cy="333.5" r="5.3" fill="#2b83ba" stroke="white" stroke-width="1"/>
<circle cx="150.7" cy="350.0" r="5.3" fill="#2b83ba" stroke="white" stroke-width="1"/>
<circle cx="181.1" cy="350.0" r="5.3" fill="#2b83ba" stroke="white" stroke-width="1"/>
<circle cx="211.5" cy="366.5" r="5.3" fill="#2b83ba" stroke="white" stroke-width="1"/>
<circle cx="241.9" cy="350.0" r="5.3" fill="#2b83ba" stroke="white" stroke-width="1"/>
<circle cx="272.2" cy="317.0" r="5.3" fill="#2b83ba" stroke="white" stroke-width="1"/>
<circle cx="302.6" cy="275.8" r="5.3" fill="#2b83ba" stroke="white" stroke-width="1"/>
<circle cx="333.0" cy="218.0" r="5.3" fill="#2b83ba" stroke="white" stroke-width="1"/>
<circle cx="363.3" cy="160.2" r="5.3" fill="#2b83ba" stroke="white" stroke-width="1"/>
<circle cx="393.7" cy="135.5" r="5.3" fill="#2b83ba" stroke="white" stroke-width="1"/>
<circle cx="424.1" cy="185.0" r="5.3" fill="#2b83ba" stroke="white" stroke-width="1"/>
<circle cx="454.4" cy="242.8" r="5.3" fill="#2b83ba" stroke="white" stroke-width="1"/>
<circle cx="484.8" cy="284.0" r="5.3" fill="#2b83ba" stroke="white" stroke-width="1"/>
<circle cx="500.0" cy="300.5" r="5.3" fill="#2b83ba" stroke="white" stroke-width="1"/>
<circle cx="90.0" cy="399.5" r="5.3" fill="#ef3b2c" stroke="white" stroke-width="1"/>
<circle cx="120.4" cy="325.2" r="5.3" fill="#ef3b2c" stroke="white" stroke-width="1"/>
<circle cx="150.7" cy="234.5" r="5.3" fill="#ef3b2c" stroke="white" stroke-width="1"/>
<circle cx="181.1" cy="176.8" r="5.3" fill="#ef3b2c" stroke="white" stroke-width="1"/>
<circle cx="211.5" cy="160.2" r="5.3" fill="#ef3b2c" stroke="white" stroke-width="1"/>
<circle cx="241.9" cy="143.8" r="5.3" fill="#ef3b2c" stroke="white" stroke-width="1"/>
<circle cx="272.2" cy="127.2" r="5.3" fill="#ef3b2c" stroke="white" stroke-width="1"/>
<circle cx="302.6" cy="135.5" r="5.3" fill="#ef3b2c" stroke="white" stroke-width="1"/>
<circle cx="333.0" cy="152.0" r="5.3" fill="#ef3b2c" stroke="white" stroke-width="1"/>
<circle cx="363.3" cy="168.5" r="5.3" fill="#ef3b2c" stroke="white" stroke-width="1"/>
<circle cx="393.7" cy="185.0" r="5.3" fill="#ef3b2c" stroke="white" stroke-width="1"/>
<circle cx="424.1" cy="201.5" r="5.3" fill="#ef3b2c" stroke="white" stroke-width="1"/>
<circle cx="454.4" cy="218.0" r="5.3" fill="#ef3b2c" stroke="white" stroke-width="1"/>
<circle cx="484.8" cy="234.5" r="5.3" fill="#ef3b2c" stroke="white" stroke-width="1"/>
<circle cx="500.0" cy="242.8" r="5.3" fill="#ef3b2c" stroke="white" stroke-width="1"/>
<line x1="90" y1="279.9" x2="500" y2="279.9" stroke="#2b83ba" stroke-width="2" stroke-dasharray="7,5" opacity="0.55"/>
<line x1="90" y1="201.8" x2="500" y2="201.8" stroke="#ef3b2c" stroke-width="2" stroke-dasharray="7,5" opacity="0.55"/>
<line x1="286.8" y1="201.8" x2="286.8" y2="279.9" stroke="#111" stroke-width="2" marker-start="url(#arrow)" marker-end="url(#arrow)"/>
<text x="298.8" y="245.8" font-family="Arial" font-size="17" font-weight="700" fill="#111">Avg. gain [TBD]</text>
<polygon points="272.2,117.2 274.9,123.6 281.7,124.2 276.5,128.6 278.1,135.3 272.2,131.8 266.3,135.3 267.9,128.6 262.7,124.2 269.6,123.6" fill="#111" stroke="white" stroke-width="1.2"/>
<text x="285.2" y="115.2" font-family="Arial" font-size="15" font-weight="700" fill="#ef3b2c">Peak [TBD]</text>
<rect x="330" y="336" width="165" height="62" rx="4" fill="white" stroke="#d7d7d7" opacity="0.95"/>
<line x1="340" y1="358" x2="370" y2="358" stroke="#2b83ba" stroke-width="4"/><circle cx="355" cy="358" r="5" fill="#2b83ba"/>
<text x="380" y="363" font-family="Arial" font-size="15" fill="#111">SiT-XL/2</text>
<line x1="340" y1="383" x2="370" y2="383" stroke="#ef3b2c" stroke-width="4"/><circle cx="355" cy="383" r="5" fill="#ef3b2c"/>
<text x="380" y="388" font-family="Arial" font-size="15" font-weight="700" fill="#111">+ LARA (Ours)</text>
<text x="295.0" y="510" text-anchor="middle" font-family="Arial" font-size="21" fill="#111">(a) Tiny ImageNet linear probe</text>
<rect x="577" y="40" width="462" height="448" fill="#fafafa" stroke="#cfcfcf" stroke-width="1.2"/>
<text x="800.0" y="64" text-anchor="middle" font-family="Arial" font-size="21" font-weight="700" fill="#111111">Linear Segmentation</text>
<text x="800.0" y="89" text-anchor="middle" font-family="Arial" font-size="15" fill="#555">PASCAL VOC</text>
<line x1="595" y1="395.4" x2="1005" y2="395.4" stroke="#e8e8e8" stroke-width="1"/>
<text x="583" y="400.4" text-anchor="end" font-family="Arial" font-size="13" fill="#555">8</text>
<line x1="595" y1="312.9" x2="1005" y2="312.9" stroke="#e8e8e8" stroke-width="1"/>
<text x="583" y="317.9" text-anchor="end" font-family="Arial" font-size="13" fill="#555">16</text>
<line x1="595" y1="230.4" x2="1005" y2="230.4" stroke="#e8e8e8" stroke-width="1"/>
<text x="583" y="235.4" text-anchor="end" font-family="Arial" font-size="13" fill="#555">24</text>
<line x1="595" y1="147.9" x2="1005" y2="147.9" stroke="#e8e8e8" stroke-width="1"/>
<text x="583" y="152.9" text-anchor="end" font-family="Arial" font-size="13" fill="#555">32</text>
<line x1="640.6" y1="86" x2="640.6" y2="416" stroke="#f0f0f0" stroke-width="1"/>
<text x="640.6" y="438" text-anchor="middle" font-family="Arial" font-size="13" fill="#555">4</text>
<line x1="701.3" y1="86" x2="701.3" y2="416" stroke="#f0f0f0" stroke-width="1"/>
<text x="701.3" y="438" text-anchor="middle" font-family="Arial" font-size="13" fill="#555">8</text>
<line x1="762.0" y1="86" x2="762.0" y2="416" stroke="#f0f0f0" stroke-width="1"/>
<text x="762.0" y="438" text-anchor="middle" font-family="Arial" font-size="13" fill="#555">12</text>
<line x1="822.8" y1="86" x2="822.8" y2="416" stroke="#f0f0f0" stroke-width="1"/>
<text x="822.8" y="438" text-anchor="middle" font-family="Arial" font-size="13" fill="#555">16</text>
<line x1="883.5" y1="86" x2="883.5" y2="416" stroke="#f0f0f0" stroke-width="1"/>
<text x="883.5" y="438" text-anchor="middle" font-family="Arial" font-size="13" fill="#555">20</text>
<line x1="944.3" y1="86" x2="944.3" y2="416" stroke="#f0f0f0" stroke-width="1"/>
<text x="944.3" y="438" text-anchor="middle" font-family="Arial" font-size="13" fill="#555">24</text>
<line x1="1005.0" y1="86" x2="1005.0" y2="416" stroke="#f0f0f0" stroke-width="1"/>
<text x="1005.0" y="438" text-anchor="middle" font-family="Arial" font-size="13" fill="#555">28</text>
<line x1="595" y1="86" x2="595" y2="416" stroke="#333333" stroke-width="1.4"/>
<line x1="595" y1="416" x2="1005" y2="416" stroke="#333333" stroke-width="1.4"/>
<text x="800.0" y="466" text-anchor="middle" font-family="Arial" font-size="16" font-weight="700" fill="#111111">Layer Index</text>
<text transform="translate(537,251.0) rotate(-90)" text-anchor="middle" font-family="Arial" font-size="16" font-weight="700" fill="#111111">mIoU (%) ↑</text>
<polyline points="595.0,385.1 610.2,374.8 625.4,364.4 640.6,364.4 655.7,374.8 670.9,374.8 686.1,374.8 701.3,364.4 716.5,364.4 731.7,354.1 746.9,354.1 762.0,343.8 777.2,333.5 792.4,323.2 807.6,312.9 822.8,292.2 838.0,271.6 853.1,251.0 868.3,230.4 883.5,199.4 898.7,178.8 913.9,209.8 929.1,251.0 944.3,281.9 959.4,312.9 974.6,333.5 989.8,343.8 1005.0,354.1" fill="none" stroke="#2b83ba" stroke-width="4" stroke-linejoin="round" stroke-linecap="round"/>
<polyline points="595.0,374.8 610.2,354.1 625.4,323.2 640.6,281.9 655.7,240.7 670.9,209.8 686.1,189.1 701.3,168.5 716.5,158.2 731.7,147.9 746.9,137.6 762.0,127.2 777.2,127.2 792.4,137.6 807.6,147.9 822.8,158.2 838.0,168.5 853.1,178.8 868.3,189.1 883.5,199.4 898.7,209.8 913.9,220.1 929.1,230.4 944.3,240.7 959.4,251.0 974.6,251.0 989.8,261.3 1005.0,261.3" fill="none" stroke="#ef3b2c" stroke-width="4" stroke-linejoin="round" stroke-linecap="round"/>
<circle cx="595.0" cy="385.1" r="5.3" fill="#2b83ba" stroke="white" stroke-width="1"/>
<circle cx="625.4" cy="364.4" r="5.3" fill="#2b83ba" stroke="white" stroke-width="1"/>
<circle cx="655.7" cy="374.8" r="5.3" fill="#2b83ba" stroke="white" stroke-width="1"/>
<circle cx="686.1" cy="374.8" r="5.3" fill="#2b83ba" stroke="white" stroke-width="1"/>
<circle cx="716.5" cy="364.4" r="5.3" fill="#2b83ba" stroke="white" stroke-width="1"/>
<circle cx="746.9" cy="354.1" r="5.3" fill="#2b83ba" stroke="white" stroke-width="1"/>
<circle cx="777.2" cy="333.5" r="5.3" fill="#2b83ba" stroke="white" stroke-width="1"/>
<circle cx="807.6" cy="312.9" r="5.3" fill="#2b83ba" stroke="white" stroke-width="1"/>
<circle cx="838.0" cy="271.6" r="5.3" fill="#2b83ba" stroke="white" stroke-width="1"/>
<circle cx="868.3" cy="230.4" r="5.3" fill="#2b83ba" stroke="white" stroke-width="1"/>
<circle cx="898.7" cy="178.8" r="5.3" fill="#2b83ba" stroke="white" stroke-width="1"/>
<circle cx="929.1" cy="251.0" r="5.3" fill="#2b83ba" stroke="white" stroke-width="1"/>
<circle cx="959.4" cy="312.9" r="5.3" fill="#2b83ba" stroke="white" stroke-width="1"/>
<circle cx="989.8" cy="343.8" r="5.3" fill="#2b83ba" stroke="white" stroke-width="1"/>
<circle cx="1005.0" cy="354.1" r="5.3" fill="#2b83ba" stroke="white" stroke-width="1"/>
<circle cx="595.0" cy="374.8" r="5.3" fill="#ef3b2c" stroke="white" stroke-width="1"/>
<circle cx="625.4" cy="323.2" r="5.3" fill="#ef3b2c" stroke="white" stroke-width="1"/>
<circle cx="655.7" cy="240.7" r="5.3" fill="#ef3b2c" stroke="white" stroke-width="1"/>
<circle cx="686.1" cy="189.1" r="5.3" fill="#ef3b2c" stroke="white" stroke-width="1"/>
<circle cx="716.5" cy="158.2" r="5.3" fill="#ef3b2c" stroke="white" stroke-width="1"/>
<circle cx="746.9" cy="137.6" r="5.3" fill="#ef3b2c" stroke="white" stroke-width="1"/>
<circle cx="777.2" cy="127.2" r="5.3" fill="#ef3b2c" stroke="white" stroke-width="1"/>
<circle cx="807.6" cy="147.9" r="5.3" fill="#ef3b2c" stroke="white" stroke-width="1"/>
<circle cx="838.0" cy="168.5" r="5.3" fill="#ef3b2c" stroke="white" stroke-width="1"/>
<circle cx="868.3" cy="189.1" r="5.3" fill="#ef3b2c" stroke="white" stroke-width="1"/>
<circle cx="898.7" cy="209.8" r="5.3" fill="#ef3b2c" stroke="white" stroke-width="1"/>
<circle cx="929.1" cy="230.4" r="5.3" fill="#ef3b2c" stroke="white" stroke-width="1"/>
<circle cx="959.4" cy="251.0" r="5.3" fill="#ef3b2c" stroke="white" stroke-width="1"/>
<circle cx="989.8" cy="261.3" r="5.3" fill="#ef3b2c" stroke="white" stroke-width="1"/>
<circle cx="1005.0" cy="261.3" r="5.3" fill="#ef3b2c" stroke="white" stroke-width="1"/>
<line x1="595" y1="316.9" x2="1005" y2="316.9" stroke="#2b83ba" stroke-width="2" stroke-dasharray="7,5" opacity="0.55"/>
<line x1="595" y1="212.3" x2="1005" y2="212.3" stroke="#ef3b2c" stroke-width="2" stroke-dasharray="7,5" opacity="0.55"/>
<line x1="791.8" y1="212.3" x2="791.8" y2="316.9" stroke="#111" stroke-width="2" marker-start="url(#arrow)" marker-end="url(#arrow)"/>
<text x="803.8" y="269.6" font-family="Arial" font-size="17" font-weight="700" fill="#111">Avg. gain [TBD]</text>
<polygon points="762.0,117.2 764.7,123.6 771.5,124.2 766.3,128.6 767.9,135.3 762.0,131.8 756.2,135.3 757.8,128.6 752.5,124.2 759.4,123.6" fill="#111" stroke="white" stroke-width="1.2"/>
<text x="775.0" y="115.2" font-family="Arial" font-size="15" font-weight="700" fill="#ef3b2c">Peak [TBD]</text>
<rect x="835" y="336" width="165" height="62" rx="4" fill="white" stroke="#d7d7d7" opacity="0.95"/>
<line x1="845" y1="358" x2="875" y2="358" stroke="#2b83ba" stroke-width="4"/><circle cx="860" cy="358" r="5" fill="#2b83ba"/>
<text x="885" y="363" font-family="Arial" font-size="15" fill="#111">SiT-XL/2</text>
<line x1="845" y1="383" x2="875" y2="383" stroke="#ef3b2c" stroke-width="4"/><circle cx="860" cy="383" r="5" fill="#ef3b2c"/>
<text x="885" y="388" font-family="Arial" font-size="15" font-weight="700" fill="#111">+ LARA (Ours)</text>
<text x="800.0" y="510" text-anchor="middle" font-family="Arial" font-size="21" fill="#111">(b) PASCAL VOC segmentation</text>
<rect x="1082" y="40" width="462" height="448" fill="#fafafa" stroke="#cfcfcf" stroke-width="1.2"/>
<text x="1305.0" y="64" text-anchor="middle" font-family="Arial" font-size="21" font-weight="700" fill="#111111">External Alignment</text>
<text x="1305.0" y="89" text-anchor="middle" font-family="Arial" font-size="15" fill="#555">DINOv2 CKA</text>
<line x1="1100" y1="391.6" x2="1510" y2="391.6" stroke="#e8e8e8" stroke-width="1"/>
<text x="1088" y="396.6" text-anchor="end" font-family="Arial" font-size="13" fill="#555">0.05</text>
<line x1="1100" y1="330.4" x2="1510" y2="330.4" stroke="#e8e8e8" stroke-width="1"/>
<text x="1088" y="335.4" text-anchor="end" font-family="Arial" font-size="13" fill="#555">0.10</text>
<line x1="1100" y1="269.3" x2="1510" y2="269.3" stroke="#e8e8e8" stroke-width="1"/>
<text x="1088" y="274.3" text-anchor="end" font-family="Arial" font-size="13" fill="#555">0.15</text>
<line x1="1100" y1="208.2" x2="1510" y2="208.2" stroke="#e8e8e8" stroke-width="1"/>
<text x="1088" y="213.2" text-anchor="end" font-family="Arial" font-size="13" fill="#555">0.20</text>
<line x1="1100" y1="147.1" x2="1510" y2="147.1" stroke="#e8e8e8" stroke-width="1"/>
<text x="1088" y="152.1" text-anchor="end" font-family="Arial" font-size="13" fill="#555">0.25</text>
<line x1="1100" y1="86.0" x2="1510" y2="86.0" stroke="#e8e8e8" stroke-width="1"/>
<text x="1088" y="91.0" text-anchor="end" font-family="Arial" font-size="13" fill="#555">0.30</text>
<line x1="1145.6" y1="86" x2="1145.6" y2="416" stroke="#f0f0f0" stroke-width="1"/>
<text x="1145.6" y="438" text-anchor="middle" font-family="Arial" font-size="13" fill="#555">4</text>
<line x1="1206.3" y1="86" x2="1206.3" y2="416" stroke="#f0f0f0" stroke-width="1"/>
<text x="1206.3" y="438" text-anchor="middle" font-family="Arial" font-size="13" fill="#555">8</text>
<line x1="1267.0" y1="86" x2="1267.0" y2="416" stroke="#f0f0f0" stroke-width="1"/>
<text x="1267.0" y="438" text-anchor="middle" font-family="Arial" font-size="13" fill="#555">12</text>
<line x1="1327.8" y1="86" x2="1327.8" y2="416" stroke="#f0f0f0" stroke-width="1"/>
<text x="1327.8" y="438" text-anchor="middle" font-family="Arial" font-size="13" fill="#555">16</text>
<line x1="1388.5" y1="86" x2="1388.5" y2="416" stroke="#f0f0f0" stroke-width="1"/>
<text x="1388.5" y="438" text-anchor="middle" font-family="Arial" font-size="13" fill="#555">20</text>
<line x1="1449.3" y1="86" x2="1449.3" y2="416" stroke="#f0f0f0" stroke-width="1"/>
<text x="1449.3" y="438" text-anchor="middle" font-family="Arial" font-size="13" fill="#555">24</text>
<line x1="1510.0" y1="86" x2="1510.0" y2="416" stroke="#f0f0f0" stroke-width="1"/>
<text x="1510.0" y="438" text-anchor="middle" font-family="Arial" font-size="13" fill="#555">28</text>
<line x1="1100" y1="86" x2="1100" y2="416" stroke="#333333" stroke-width="1.4"/>
<line x1="1100" y1="416" x2="1510" y2="416" stroke="#333333" stroke-width="1.4"/>
<text x="1305.0" y="466" text-anchor="middle" font-family="Arial" font-size="16" font-weight="700" fill="#111111">Layer Index</text>
<text transform="translate(1042,251.0) rotate(-90)" text-anchor="middle" font-family="Arial" font-size="16" font-weight="700" fill="#111111">CKA vs. DINOv2 ↑</text>
<polyline points="1100.0,397.7 1115.2,389.1 1130.4,381.8 1145.6,376.9 1160.7,373.2 1175.9,372.0 1191.1,370.8 1206.3,369.6 1221.5,367.1 1236.7,363.4 1251.9,358.6 1267.0,353.7 1282.2,347.6 1297.4,341.4 1312.6,335.3 1327.8,329.2 1343.0,323.1 1358.1,315.8 1373.3,296.2 1388.5,251.0 1403.7,202.1 1418.9,177.7 1434.1,159.3 1449.3,149.6 1464.4,153.2 1479.6,161.8 1494.8,169.1 1510.0,177.7" fill="none" stroke="#2b83ba" stroke-width="4" stroke-linejoin="round" stroke-linecap="round"/>
<polyline points="1100.0,312.1 1115.2,299.9 1130.4,284.0 1145.6,262.0 1160.7,237.6 1175.9,210.7 1191.1,186.2 1206.3,165.4 1221.5,149.6 1236.7,137.3 1251.9,127.6 1267.0,120.2 1282.2,115.3 1297.4,111.7 1312.6,109.2 1327.8,106.8 1343.0,109.2 1358.1,111.7 1373.3,115.3 1388.5,119.0 1403.7,122.7 1418.9,126.3 1434.1,130.0 1449.3,133.7 1464.4,137.3 1479.6,141.0 1494.8,144.7 1510.0,149.6" fill="none" stroke="#ef3b2c" stroke-width="4" stroke-linejoin="round" stroke-linecap="round"/>
<circle cx="1100.0" cy="397.7" r="5.3" fill="#2b83ba" stroke="white" stroke-width="1"/>
<circle cx="1130.4" cy="381.8" r="5.3" fill="#2b83ba" stroke="white" stroke-width="1"/>
<circle cx="1160.7" cy="373.2" r="5.3" fill="#2b83ba" stroke="white" stroke-width="1"/>
<circle cx="1191.1" cy="370.8" r="5.3" fill="#2b83ba" stroke="white" stroke-width="1"/>
<circle cx="1221.5" cy="367.1" r="5.3" fill="#2b83ba" stroke="white" stroke-width="1"/>
<circle cx="1251.9" cy="358.6" r="5.3" fill="#2b83ba" stroke="white" stroke-width="1"/>
<circle cx="1282.2" cy="347.6" r="5.3" fill="#2b83ba" stroke="white" stroke-width="1"/>
<circle cx="1312.6" cy="335.3" r="5.3" fill="#2b83ba" stroke="white" stroke-width="1"/>
<circle cx="1343.0" cy="323.1" r="5.3" fill="#2b83ba" stroke="white" stroke-width="1"/>
<circle cx="1373.3" cy="296.2" r="5.3" fill="#2b83ba" stroke="white" stroke-width="1"/>
<circle cx="1403.7" cy="202.1" r="5.3" fill="#2b83ba" stroke="white" stroke-width="1"/>
<circle cx="1434.1" cy="159.3" r="5.3" fill="#2b83ba" stroke="white" stroke-width="1"/>
<circle cx="1464.4" cy="153.2" r="5.3" fill="#2b83ba" stroke="white" stroke-width="1"/>
<circle cx="1494.8" cy="169.1" r="5.3" fill="#2b83ba" stroke="white" stroke-width="1"/>
<circle cx="1510.0" cy="177.7" r="5.3" fill="#2b83ba" stroke="white" stroke-width="1"/>
<circle cx="1100.0" cy="312.1" r="5.3" fill="#ef3b2c" stroke="white" stroke-width="1"/>
<circle cx="1130.4" cy="284.0" r="5.3" fill="#ef3b2c" stroke="white" stroke-width="1"/>
<circle cx="1160.7" cy="237.6" r="5.3" fill="#ef3b2c" stroke="white" stroke-width="1"/>
<circle cx="1191.1" cy="186.2" r="5.3" fill="#ef3b2c" stroke="white" stroke-width="1"/>
<circle cx="1221.5" cy="149.6" r="5.3" fill="#ef3b2c" stroke="white" stroke-width="1"/>
<circle cx="1251.9" cy="127.6" r="5.3" fill="#ef3b2c" stroke="white" stroke-width="1"/>
<circle cx="1282.2" cy="115.3" r="5.3" fill="#ef3b2c" stroke="white" stroke-width="1"/>
<circle cx="1312.6" cy="109.2" r="5.3" fill="#ef3b2c" stroke="white" stroke-width="1"/>
<circle cx="1343.0" cy="109.2" r="5.3" fill="#ef3b2c" stroke="white" stroke-width="1"/>
<circle cx="1373.3" cy="115.3" r="5.3" fill="#ef3b2c" stroke="white" stroke-width="1"/>
<circle cx="1403.7" cy="122.7" r="5.3" fill="#ef3b2c" stroke="white" stroke-width="1"/>
<circle cx="1434.1" cy="130.0" r="5.3" fill="#ef3b2c" stroke="white" stroke-width="1"/>
<circle cx="1464.4" cy="137.3" r="5.3" fill="#ef3b2c" stroke="white" stroke-width="1"/>
<circle cx="1494.8" cy="144.7" r="5.3" fill="#ef3b2c" stroke="white" stroke-width="1"/>
<circle cx="1510.0" cy="149.6" r="5.3" fill="#ef3b2c" stroke="white" stroke-width="1"/>
<line x1="1100" y1="298.7" x2="1510" y2="298.7" stroke="#2b83ba" stroke-width="2" stroke-dasharray="7,5" opacity="0.55"/>
<line x1="1100" y1="159.9" x2="1510" y2="159.9" stroke="#ef3b2c" stroke-width="2" stroke-dasharray="7,5" opacity="0.55"/>
<line x1="1296.8" y1="159.9" x2="1296.8" y2="298.7" stroke="#111" stroke-width="2" marker-start="url(#arrow)" marker-end="url(#arrow)"/>
<text x="1308.8" y="234.3" font-family="Arial" font-size="17" font-weight="700" fill="#111">Avg. gain [TBD]</text>
<polygon points="1327.8,96.8 1330.4,103.1 1337.3,103.7 1332.1,108.2 1333.7,114.9 1327.8,111.3 1321.9,114.9 1323.5,108.2 1318.3,103.7 1325.1,103.1" fill="#111" stroke="white" stroke-width="1.2"/>
<text x="1340.8" y="94.8" font-family="Arial" font-size="15" font-weight="700" fill="#ef3b2c">Peak [TBD]</text>
<rect x="1340" y="336" width="165" height="62" rx="4" fill="white" stroke="#d7d7d7" opacity="0.95"/>
<line x1="1350" y1="358" x2="1380" y2="358" stroke="#2b83ba" stroke-width="4"/><circle cx="1365" cy="358" r="5" fill="#2b83ba"/>
<text x="1390" y="363" font-family="Arial" font-size="15" fill="#111">SiT-XL/2</text>
<line x1="1350" y1="383" x2="1380" y2="383" stroke="#ef3b2c" stroke-width="4"/><circle cx="1365" cy="383" r="5" fill="#ef3b2c"/>
<text x="1390" y="388" font-family="Arial" font-size="15" font-weight="700" fill="#111">+ LARA (Ours)</text>
<text x="1305.0" y="510" text-anchor="middle" font-family="Arial" font-size="21" fill="#111">(c) DINOv2 alignment</text>
</svg>
